<?xml version="1.0" encoding="utf-8"?>
<!-- Generator: Adobe Illustrator 18.0.0, SVG Export Plug-In . SVG Version: 6.00 Build 0)  -->
<!DOCTYPE svg PUBLIC "-//W3C//DTD SVG 1.1//EN" "http://www.w3.org/Graphics/SVG/1.1/DTD/svg11.dtd">
<svg version="1.1" id="Warstwa_1" xmlns="http://www.w3.org/2000/svg" xmlns:xlink="http://www.w3.org/1999/xlink" x="0px" y="0px"
	 viewBox="0 0 130 130" enable-background="new 0 0 130 130" xml:space="preserve">
<pattern  width="5.7" height="5.7" patternUnits="userSpaceOnUse" id="GREYKNIT" viewBox="0 -5.7 5.7 5.7" overflow="visible">
	<g>
		<polygon fill="none" points="0,0 5.7,0 5.7,-5.7 0,-5.7 		"/>
		<polygon fill="#D5D4D6" points="5.7,0 0,0 0,-5.7 5.7,-5.7 		"/>
		<path fill="#696A70" d="M3.1-4.3c-0.6,1-0.5,2.1,0,2.4c0.6,0.3,1.5-0.2,2.1-1.2c0.6-1,0.5-2.1,0-2.4C4.6-5.9,3.7-5.3,3.1-4.3z"/>
		<path fill="#696A70" d="M2.6-2.6c0.6,1,0.5,2.1,0,2.4C2,0.2,1-0.3,0.5-1.3c-0.6-1-0.5-2.1,0-2.4C1.1-4.1,2-3.5,2.6-2.6z"/>
	</g>
</pattern>
<g>
	<rect x="61.2" y="7.6" fill="url(#GREYKNIT)" width="7.6" height="7.6"/>
	<rect x="76.5" y="7.6" fill="url(#GREYKNIT)" width="7.6" height="7.6"/>
	<rect x="45.9" y="7.6" fill="url(#GREYKNIT)" width="7.6" height="7.6"/>
	<rect x="61.2" fill="url(#GREYKNIT)" width="7.6" height="7.6"/>
	<rect x="7.6" y="91.8" fill="url(#GREYKNIT)" width="30.6" height="7.6"/>
	<rect x="30.6" y="99.4" fill="url(#GREYKNIT)" width="7.6" height="22.9"/>
	<rect x="22.9" y="99.4" fill="url(#GREYKNIT)" width="7.6" height="7.6"/>
	<rect x="15.3" y="107.1" fill="url(#GREYKNIT)" width="7.6" height="7.6"/>
	<rect x="38.2" y="84.1" fill="url(#GREYKNIT)" width="7.6" height="7.6"/>
	<rect x="45.9" y="76.5" fill="url(#GREYKNIT)" width="7.6" height="7.6"/>
	<rect x="53.5" y="76.5" fill="url(#GREYKNIT)" width="7.6" height="7.6"/>
	<rect x="45.9" y="68.8" fill="url(#GREYKNIT)" width="7.6" height="7.6"/>
	<rect x="68.8" y="61.2" fill="url(#GREYKNIT)" width="7.6" height="7.6"/>
	<rect x="53.5" y="61.2" fill="url(#GREYKNIT)" width="7.6" height="7.6"/>
	<rect x="61.2" y="68.8" fill="url(#GREYKNIT)" width="7.6" height="7.6"/>
	<rect x="61.2" y="53.5" fill="url(#GREYKNIT)" width="7.6" height="7.6"/>
	<rect x="61.2" y="84.1" fill="url(#GREYKNIT)" width="7.6" height="30.6"/>
	<rect x="53.5" y="107.1" fill="url(#GREYKNIT)" width="22.9" height="7.6"/>
	<rect x="61.2" y="114.7" fill="url(#GREYKNIT)" width="7.6" height="7.6"/>
	<rect x="45.9" y="114.7" fill="url(#GREYKNIT)" width="7.6" height="7.6"/>
	<rect x="76.5" y="114.7" fill="url(#GREYKNIT)" width="7.6" height="7.6"/>
	<rect x="61.2" y="122.4" fill="url(#GREYKNIT)" width="7.6" height="7.6"/>
	<rect x="68.8" y="76.5" fill="url(#GREYKNIT)" width="15.3" height="7.6"/>
	<rect x="76.5" y="68.8" fill="url(#GREYKNIT)" width="7.6" height="15.3"/>
	<rect x="84.1" y="84.1" fill="url(#GREYKNIT)" width="7.6" height="7.6"/>
	<rect x="91.8" y="91.8" fill="url(#GREYKNIT)" width="7.6" height="7.6"/>
	<rect x="99.4" y="99.4" fill="url(#GREYKNIT)" width="7.6" height="7.6"/>
	<rect x="107.1" y="107.1" fill="url(#GREYKNIT)" width="7.6" height="7.6"/>
	<rect x="91.8" y="91.8" fill="url(#GREYKNIT)" width="7.6" height="30.6"/>
	<rect x="91.8" y="91.8" fill="url(#GREYKNIT)" width="30.6" height="7.6"/>
	<rect x="91.8" y="30.6" fill="url(#GREYKNIT)" width="30.6" height="7.6"/>
	<rect x="91.8" y="7.6" fill="url(#GREYKNIT)" width="7.6" height="22.9"/>
	<rect x="99.4" y="22.9" fill="url(#GREYKNIT)" width="7.6" height="7.6"/>
	<rect x="107.1" y="15.3" fill="url(#GREYKNIT)" width="7.6" height="7.6"/>
	<rect x="84.1" y="38.2" fill="url(#GREYKNIT)" width="7.6" height="7.6"/>
	<rect x="68.8" y="45.9" fill="url(#GREYKNIT)" width="15.3" height="7.6"/>
	<rect x="76.5" y="53.5" fill="url(#GREYKNIT)" width="7.6" height="7.6"/>
	<rect x="61.2" y="15.3" fill="url(#GREYKNIT)" width="7.6" height="30.6"/>
	<rect x="53.5" y="15.3" fill="url(#GREYKNIT)" width="22.9" height="7.6"/>
	<rect x="45.9" y="45.9" fill="url(#GREYKNIT)" width="15.3" height="7.6"/>
	<rect x="45.9" y="45.9" fill="url(#GREYKNIT)" width="7.6" height="15.3"/>
	<rect x="38.2" y="38.2" fill="url(#GREYKNIT)" width="7.6" height="7.6"/>
	<rect x="30.6" y="30.6" fill="url(#GREYKNIT)" width="7.6" height="7.6"/>
	<rect x="22.9" y="22.9" fill="url(#GREYKNIT)" width="7.6" height="7.6"/>
	<rect x="15.3" y="15.3" fill="url(#GREYKNIT)" width="7.6" height="7.6"/>
	<rect x="30.6" y="7.6" fill="url(#GREYKNIT)" width="7.6" height="30.6"/>
	<rect x="7.6" y="30.6" fill="url(#GREYKNIT)" width="30.6" height="7.6"/>
	<rect y="61.2" fill="url(#GREYKNIT)" width="45.9" height="7.6"/>
	<rect x="15.3" y="53.5" fill="url(#GREYKNIT)" width="7.6" height="22.9"/>
	<rect x="7.6" y="76.5" fill="url(#GREYKNIT)" width="7.6" height="7.6"/>
	<rect x="7.6" y="45.9" fill="url(#GREYKNIT)" width="7.6" height="7.6"/>
	<rect x="84.1" y="61.2" fill="url(#GREYKNIT)" width="45.9" height="7.6"/>
	<rect x="107.1" y="53.5" fill="url(#GREYKNIT)" width="7.6" height="22.9"/>
	<rect x="114.7" y="45.9" fill="url(#GREYKNIT)" width="7.6" height="7.6"/>
	<rect x="114.7" y="76.5" fill="url(#GREYKNIT)" width="7.6" height="7.6"/>
</g>
</svg>
