<?xml version="1.0" encoding="utf-8"?>
<!-- Generator: Adobe Illustrator 18.0.0, SVG Export Plug-In . SVG Version: 6.00 Build 0)  -->
<!DOCTYPE svg PUBLIC "-//W3C//DTD SVG 1.1//EN" "http://www.w3.org/Graphics/SVG/1.1/DTD/svg11.dtd">
<svg version="1.1" id="Warstwa_1" xmlns="http://www.w3.org/2000/svg" xmlns:xlink="http://www.w3.org/1999/xlink" x="0px" y="0px"
	 viewBox="0 0 60 80" enable-background="new 0 0 60 80" xml:space="preserve">
<pattern  y="80" width="5.7" height="5.7" patternUnits="userSpaceOnUse" id="REDKNIT" viewBox="0 -5.7 5.7 5.7" overflow="visible">
	<g>
		<polygon fill="none" points="0,0 5.7,0 5.7,-5.7 0,-5.7 		"/>
		<polygon fill="#E30613" points="5.7,0 0,0 0,-5.7 5.7,-5.7 		"/>
		<path fill="#A42423" d="M3.1-4.3c-0.6,1-0.5,2.1,0,2.4c0.6,0.3,1.5-0.2,2.1-1.2c0.6-1,0.5-2.1,0-2.4C4.6-5.9,3.7-5.3,3.1-4.3z"/>
		<path fill="#A42423" d="M2.6-2.6c0.6,1,0.5,2.1,0,2.4C2,0.2,1-0.3,0.5-1.3c-0.6-1-0.5-2.1,0-2.4C1.1-4.1,2-3.5,2.6-2.6z"/>
	</g>
</pattern>
<g>
	<pattern  id="SVGID_1_" xlink:href="#REDKNIT" patternTransform="matrix(0.8571 0 0 -0.8571 -1165.9999 -15233.4141)">
	</pattern>
	<rect x="20" y="29.9" fill="url(#SVGID_1_)" width="6.7" height="6.7"/>
	<pattern  id="SVGID_2_" xlink:href="#REDKNIT" patternTransform="matrix(0.8571 0 0 -0.8571 -1165.9999 -15233.4141)">
	</pattern>
	<rect x="33.3" y="29.9" fill="url(#SVGID_2_)" width="6.7" height="6.7"/>
	<pattern  id="SVGID_3_" xlink:href="#REDKNIT" patternTransform="matrix(0.8571 0 0 -0.8571 -1165.9999 -15233.4141)">
	</pattern>
	<rect x="20" y="43.2" fill="url(#SVGID_3_)" width="6.7" height="6.7"/>
	<pattern  id="SVGID_4_" xlink:href="#REDKNIT" patternTransform="matrix(0.8571 0 0 -0.8571 -1165.9999 -15233.4141)">
	</pattern>
	<rect x="33.3" y="43.2" fill="url(#SVGID_4_)" width="6.7" height="6.7"/>
	<pattern  id="SVGID_5_" xlink:href="#REDKNIT" patternTransform="matrix(0.8571 0 0 -0.8571 -1165.9999 -15233.4141)">
	</pattern>
	<rect x="26.7" y="36.5" fill="url(#SVGID_5_)" width="6.7" height="6.7"/>
	<pattern  id="SVGID_6_" xlink:href="#REDKNIT" patternTransform="matrix(0.8571 0 0 -0.8571 -1165.9999 -15233.4141)">
	</pattern>
	<rect x="39.9" y="23.2" fill="url(#SVGID_6_)" width="6.7" height="6.7"/>
	<pattern  id="SVGID_7_" xlink:href="#REDKNIT" patternTransform="matrix(0.8571 0 0 -0.8571 -1165.9999 -15233.4141)">
	</pattern>
	<rect x="46.6" y="16.5" fill="url(#SVGID_7_)" width="6.7" height="6.7"/>
	<pattern  id="SVGID_8_" xlink:href="#REDKNIT" patternTransform="matrix(0.8571 0 0 -0.8571 -1165.9999 -15233.4141)">
	</pattern>
	<rect x="26.7" y="9.8" fill="url(#SVGID_8_)" width="6.7" height="13.4"/>
	<pattern  id="SVGID_9_" xlink:href="#REDKNIT" patternTransform="matrix(0.8571 0 0 -0.8571 -1165.9999 -15233.4141)">
	</pattern>
	<rect x="13.3" y="23.2" fill="url(#SVGID_9_)" width="6.7" height="6.7"/>
	<pattern  id="SVGID_10_" xlink:href="#REDKNIT" patternTransform="matrix(0.8571 0 0 -0.8571 -1165.9999 -15233.4141)">
	</pattern>
	<rect x="6.6" y="16.5" fill="url(#SVGID_10_)" width="6.7" height="6.7"/>
	<pattern  id="SVGID_11_" xlink:href="#REDKNIT" patternTransform="matrix(0.8571 0 0 -0.8571 -1165.9999 -15233.4141)">
	</pattern>
	<rect y="36.5" fill="url(#SVGID_11_)" width="13.4" height="6.7"/>
	<pattern  id="SVGID_12_" xlink:href="#REDKNIT" patternTransform="matrix(0.8571 0 0 -0.8571 -1165.9999 -15233.4141)">
	</pattern>
	<rect x="46.6" y="36.5" fill="url(#SVGID_12_)" width="13.4" height="6.7"/>
	<pattern  id="SVGID_13_" xlink:href="#REDKNIT" patternTransform="matrix(0.8571 0 0 -0.8571 -1165.9999 -15233.4141)">
	</pattern>
	<rect x="39.9" y="49.9" fill="url(#SVGID_13_)" width="6.7" height="6.7"/>
	<pattern  id="SVGID_14_" xlink:href="#REDKNIT" patternTransform="matrix(0.8571 0 0 -0.8571 -1165.9999 -15233.4141)">
	</pattern>
	<rect x="46.6" y="56.5" fill="url(#SVGID_14_)" width="6.7" height="6.7"/>
	<pattern  id="SVGID_15_" xlink:href="#REDKNIT" patternTransform="matrix(0.8571 0 0 -0.8571 -1165.9999 -15233.4141)">
	</pattern>
	<rect x="26.7" y="56.5" fill="url(#SVGID_15_)" width="6.7" height="13.4"/>
	<pattern  id="SVGID_16_" xlink:href="#REDKNIT" patternTransform="matrix(0.8571 0 0 -0.8571 -1165.9999 -15233.4141)">
	</pattern>
	<rect x="13.3" y="49.9" fill="url(#SVGID_16_)" width="6.7" height="6.7"/>
	<pattern  id="SVGID_17_" xlink:href="#REDKNIT" patternTransform="matrix(0.8571 0 0 -0.8571 -1165.9999 -15233.4141)">
	</pattern>
	<rect x="6.6" y="56.5" fill="url(#SVGID_17_)" width="6.7" height="6.7"/>
</g>
</svg>
