<?xml version="1.0" encoding="utf-8"?>
<!-- Generator: Adobe Illustrator 18.0.0, SVG Export Plug-In . SVG Version: 6.00 Build 0)  -->
<!DOCTYPE svg PUBLIC "-//W3C//DTD SVG 1.1//EN" "http://www.w3.org/Graphics/SVG/1.1/DTD/svg11.dtd">
<svg version="1.1" id="Warstwa_1" xmlns="http://www.w3.org/2000/svg" xmlns:xlink="http://www.w3.org/1999/xlink" x="0px" y="0px"
	 viewBox="0 0 70 70" enable-background="new 0 0 70 70" xml:space="preserve">
<pattern  width="5.7" height="5.7" patternUnits="userSpaceOnUse" id="LIGHTGREYKNIT" viewBox="0 -5.7 5.7 5.7" overflow="visible">
	<g>
		<polygon fill="none" points="0,0 5.7,0 5.7,-5.7 0,-5.7 		"/>
		<polygon fill="#D5D5D6" points="5.7,0 0,0 0,-5.7 5.7,-5.7 		"/>
		<path fill="#C5C5C7" d="M3.1-4.3c-0.6,1-0.5,2.1,0,2.4c0.6,0.3,1.5-0.2,2.1-1.2c0.6-1,0.5-2.1,0-2.4C4.6-5.9,3.7-5.3,3.1-4.3z"/>
		<path fill="#C5C5C7" d="M2.6-2.6c0.6,1,0.5,2.1,0,2.4C2,0.2,1-0.3,0.5-1.3c-0.6-1-0.5-2.1,0-2.4C1.1-4.1,2-3.5,2.6-2.6z"/>
	</g>
</pattern>
<g>
	<rect x="23.3" y="23.2" fill="url(#LIGHTGREYKNIT)" width="7.8" height="7.8"/>
	<rect x="38.9" y="23.2" fill="url(#LIGHTGREYKNIT)" width="7.8" height="7.8"/>
	<rect x="23.3" y="38.7" fill="url(#LIGHTGREYKNIT)" width="7.8" height="7.8"/>
	<rect x="38.9" y="38.7" fill="url(#LIGHTGREYKNIT)" width="7.8" height="7.8"/>
	<rect x="31.1" y="30.9" fill="url(#LIGHTGREYKNIT)" width="7.8" height="7.8"/>
	<rect x="46.6" y="15.4" fill="url(#LIGHTGREYKNIT)" width="7.8" height="7.8"/>
	<rect x="54.4" y="7.6" fill="url(#LIGHTGREYKNIT)" width="7.8" height="7.8"/>
	<rect x="31.1" y="-0.2" fill="url(#LIGHTGREYKNIT)" width="7.8" height="15.6"/>
	<rect x="15.5" y="15.4" fill="url(#LIGHTGREYKNIT)" width="7.8" height="7.8"/>
	<rect x="7.7" y="7.6" fill="url(#LIGHTGREYKNIT)" width="7.8" height="7.8"/>
	<rect x="0" y="30.9" fill="url(#LIGHTGREYKNIT)" width="15.6" height="7.8"/>
	<rect x="54.4" y="30.9" fill="url(#LIGHTGREYKNIT)" width="15.6" height="7.8"/>
	<rect x="46.6" y="46.5" fill="url(#LIGHTGREYKNIT)" width="7.8" height="7.8"/>
	<rect x="54.4" y="54.3" fill="url(#LIGHTGREYKNIT)" width="7.8" height="7.8"/>
	<rect x="31.1" y="54.3" fill="url(#LIGHTGREYKNIT)" width="7.8" height="15.6"/>
	<rect x="15.5" y="46.5" fill="url(#LIGHTGREYKNIT)" width="7.8" height="7.8"/>
	<rect x="7.7" y="54.3" fill="url(#LIGHTGREYKNIT)" width="7.8" height="7.8"/>
</g>
</svg>
