<?xml version="1.0" encoding="utf-8"?>
<!-- Generator: Adobe Illustrator 18.0.0, SVG Export Plug-In . SVG Version: 6.00 Build 0)  -->
<!DOCTYPE svg PUBLIC "-//W3C//DTD SVG 1.1//EN" "http://www.w3.org/Graphics/SVG/1.1/DTD/svg11.dtd">
<svg version="1.1" id="Warstwa_1" xmlns="http://www.w3.org/2000/svg" xmlns:xlink="http://www.w3.org/1999/xlink" x="0px" y="0px"
	 viewBox="0 0 5.7 5.7" enable-background="new 0 0 5.7 5.7" xml:space="preserve">
<pattern  width="5.7" height="5.7" patternUnits="userSpaceOnUse" id="NYE_KNIT" viewBox="0 -5.7 5.7 5.7" overflow="visible">
	<g>
		<polygon fill="none" points="0,0 5.7,0 5.7,-5.7 0,-5.7 		"/>
		<polygon fill="#F49D1E" points="5.7,0 0,0 0,-5.7 5.7,-5.7 		"/>
		<path fill="#DF8426" d="M3.1-4.3c-0.6,1-0.5,2.1,0,2.4c0.6,0.3,1.5-0.2,2.1-1.2c0.6-1,0.5-2.1,0-2.4C4.6-5.9,3.7-5.3,3.1-4.3z"/>
		<path fill="#DF8426" d="M2.6-2.6c0.6,1,0.5,2.1,0,2.4C2,0.2,1-0.3,0.5-1.3c-0.6-1-0.5-2.1,0-2.4C1.1-4.1,2-3.5,2.6-2.6z"/>
	</g>
</pattern>
<rect fill="url(#NYE_KNIT)" width="5.7" height="5.7"/>
</svg>
