<?xml version="1.0" encoding="utf-8"?>
<!-- Generator: Adobe Illustrator 18.0.0, SVG Export Plug-In . SVG Version: 6.00 Build 0)  -->
<!DOCTYPE svg PUBLIC "-//W3C//DTD SVG 1.1//EN" "http://www.w3.org/Graphics/SVG/1.1/DTD/svg11.dtd">
<svg version="1.1" id="Warstwa_1" xmlns="http://www.w3.org/2000/svg" xmlns:xlink="http://www.w3.org/1999/xlink" x="0px" y="0px"
	 viewBox="0 0 165 170" enable-background="new 0 0 165 170" xml:space="preserve">
<pattern  width="5.7" height="5.7" patternUnits="userSpaceOnUse" id="GREENKNIT" viewBox="0 -5.7 5.7 5.7" overflow="visible">
	<g>
		<polygon fill="none" points="0,0 5.7,0 5.7,-5.7 0,-5.7 		"/>
		<polygon fill="#4CA246" points="5.7,0 0,0 0,-5.7 5.7,-5.7 		"/>
		<path fill="#5E7835" d="M3.1-4.3c-0.6,1-0.5,2.1,0,2.4c0.6,0.3,1.5-0.2,2.1-1.2c0.6-1,0.5-2.1,0-2.4C4.6-5.9,3.7-5.3,3.1-4.3z"/>
		<path fill="#5E7835" d="M2.6-2.6c0.6,1,0.5,2.1,0,2.4C2,0.2,1-0.3,0.5-1.3c-0.6-1-0.5-2.1,0-2.4C1.1-4.1,2-3.5,2.6-2.6z"/>
	</g>
</pattern>
<pattern  width="5.7" height="5.7" patternUnits="userSpaceOnUse" id="GREYKNIT" viewBox="0 -5.7 5.7 5.7" overflow="visible">
	<g>
		<polygon fill="none" points="0,0 5.7,0 5.7,-5.7 0,-5.7 		"/>
		<polygon fill="#D5D5D6" points="5.7,0 0,0 0,-5.7 5.7,-5.7 		"/>
		<path fill="#696B6F" d="M3.1-4.3c-0.6,1-0.5,2.1,0,2.4c0.6,0.3,1.5-0.2,2.1-1.2c0.6-1,0.5-2.1,0-2.4C4.6-5.9,3.7-5.3,3.1-4.3z"/>
		<path fill="#696B6F" d="M2.6-2.6c0.6,1,0.5,2.1,0,2.4C2,0.2,1-0.3,0.5-1.3c-0.6-1-0.5-2.1,0-2.4C1.1-4.1,2-3.5,2.6-2.6z"/>
	</g>
</pattern>
<g>
	<g>
		<rect x="144.9" y="86.7" fill="url(#GREENKNIT)" width="5.8" height="5.8"/>
		<rect x="150.7" y="80.9" fill="url(#GREENKNIT)" width="5.8" height="5.8"/>
		<rect x="156.5" y="75.1" fill="url(#GREENKNIT)" width="5.8" height="5.8"/>
		<rect x="144.9" y="75.1" fill="url(#GREENKNIT)" width="5.8" height="5.8"/>
		<rect x="156.5" y="86.7" fill="url(#GREENKNIT)" width="5.8" height="5.8"/>
	</g>
	<g>
		<rect x="144.9" y="51.9" fill="url(#GREENKNIT)" width="5.8" height="5.8"/>
		<rect x="150.7" y="46.1" fill="url(#GREENKNIT)" width="5.8" height="5.8"/>
		<rect x="156.5" y="40.3" fill="url(#GREENKNIT)" width="5.8" height="5.8"/>
		<rect x="144.9" y="40.3" fill="url(#GREENKNIT)" width="5.8" height="5.8"/>
		<rect x="156.5" y="51.9" fill="url(#GREENKNIT)" width="5.8" height="5.8"/>
	</g>
	<g>
		<rect x="144.9" y="17.1" fill="url(#GREENKNIT)" width="5.8" height="5.8"/>
		<rect x="150.7" y="11.3" fill="url(#GREENKNIT)" width="5.8" height="5.8"/>
		<rect x="156.5" y="5.5" fill="url(#GREENKNIT)" width="5.8" height="5.8"/>
		<rect x="144.9" y="5.5" fill="url(#GREENKNIT)" width="5.8" height="5.8"/>
		<rect x="156.5" y="17.1" fill="url(#GREENKNIT)" width="5.8" height="5.8"/>
	</g>
	<g>
		<rect x="144.9" y="121.4" fill="url(#GREENKNIT)" width="5.8" height="5.8"/>
		<rect x="150.7" y="115.6" fill="url(#GREENKNIT)" width="5.8" height="5.8"/>
		<rect x="156.5" y="109.8" fill="url(#GREENKNIT)" width="5.8" height="5.8"/>
		<rect x="144.9" y="109.8" fill="url(#GREENKNIT)" width="5.8" height="5.8"/>
		<rect x="156.5" y="121.4" fill="url(#GREENKNIT)" width="5.8" height="5.8"/>
	</g>
	<g>
		<rect x="144.9" y="156.2" fill="url(#GREENKNIT)" width="5.8" height="5.8"/>
		<rect x="150.7" y="150.4" fill="url(#GREENKNIT)" width="5.8" height="5.8"/>
		<rect x="156.5" y="144.6" fill="url(#GREENKNIT)" width="5.8" height="5.8"/>
		<rect x="144.9" y="144.6" fill="url(#GREENKNIT)" width="5.8" height="5.8"/>
		<rect x="156.5" y="156.2" fill="url(#GREENKNIT)" width="5.8" height="5.8"/>
	</g>
	<g>
		<rect x="92.8" y="22.9" fill="url(#GREYKNIT)" width="5.8" height="5.8"/>
		<rect x="104.3" y="22.9" fill="url(#GREYKNIT)" width="5.8" height="5.8"/>
		<rect x="92.8" y="34.5" fill="url(#GREYKNIT)" width="5.8" height="5.8"/>
		<rect x="104.3" y="34.5" fill="url(#GREYKNIT)" width="5.8" height="5.8"/>
		<rect x="98.5" y="28.7" fill="url(#GREYKNIT)" width="5.8" height="5.8"/>
		<rect x="110.1" y="17.1" fill="url(#GREYKNIT)" width="5.8" height="5.8"/>
		<rect x="115.9" y="11.3" fill="url(#GREYKNIT)" width="5.8" height="5.8"/>
		<rect x="98.5" y="5.5" fill="url(#GREYKNIT)" width="5.8" height="11.6"/>
		<rect x="87" y="17.1" fill="url(#GREYKNIT)" width="5.8" height="5.8"/>
		<rect x="81.2" y="11.3" fill="url(#GREYKNIT)" width="5.8" height="5.8"/>
		<rect x="75.4" y="28.7" fill="url(#GREYKNIT)" width="11.6" height="5.8"/>
		<rect x="115.9" y="28.7" fill="url(#GREYKNIT)" width="11.6" height="5.8"/>
		<rect x="110.1" y="40.3" fill="url(#GREYKNIT)" width="5.8" height="5.8"/>
		<rect x="115.9" y="46.1" fill="url(#GREYKNIT)" width="5.8" height="5.8"/>
		<rect x="98.5" y="46.1" fill="url(#GREYKNIT)" width="5.8" height="11.6"/>
		<rect x="87" y="40.3" fill="url(#GREYKNIT)" width="5.8" height="5.8"/>
		<rect x="81.2" y="46.1" fill="url(#GREYKNIT)" width="5.8" height="5.8"/>
	</g>
	<path fill="url(#GREENKNIT)" d="M69.6,162v-5.8h-5.8v5.8H69.6z M75.4,156.2v-5.8h-5.8v5.8H75.4z M81.2,150.4v-5.8h-5.8v5.8H81.2z
		 M29,144.6V133h-5.8v11.6H29z M17.4,121.4h-5.8V133h5.8V121.4z M11.6,109.9H5.8v11.6h5.8V109.9z M87,144.6v-5.8h-5.8v5.8H87z
		 M11.6,167.8V162H5.8v5.8H11.6z M23.2,156.2v-11.6h-5.8v5.8h-5.8V162h5.8v-5.8H23.2z M46.4,17.1v5.8H58v-5.8H46.4z M23.2,11.3v11.6
		H29V11.3H23.2z M23.2,5.5H29v-5.8h-5.8V5.5z M0,98.3v11.6h5.8v-5.8h11.6v5.8h5.8v5.8H29V133h5.8v-11.6h5.8v-5.8h5.8v-5.8h29v11.6
		h5.8V133H87v5.8h5.8v-29h5.8v11.6h11.6v5.8h5.8v11.6h5.8v-17.4h-5.8v-5.8h-5.8v-11.6h5.8V86.7h11.6V75.1h-5.8v5.8h-17.4v-5.8H92.8
		v-5.8H87v5.8H52.2v-5.8h-5.8v-5.8h-5.8V51.9h-5.8v-5.8h5.8V28.7H29v5.8h-5.8V22.9h-5.8v-5.8h-5.8v5.8H5.8v5.8h5.8v5.8h5.8v5.8h-5.8
		v11.6H5.8v5.8h11.6v5.8h-5.8v17.4H5.8v11.6h5.8v5.8H0z M34.8-0.3v5.8h5.8v-5.8H34.8z M29,5.5v5.8h5.8V5.5H29z M63.8-0.3v5.8h5.8
		v-5.8H63.8z M58,5.5v11.6h11.6v-5.8h-5.8V5.5H58z M40.6,22.9v5.8h5.8v-5.8H40.6z M127.5,138.8h-5.8v11.6h5.8V138.8z M121.7,162
		v-11.6h-5.8V162H121.7z"/>
</g>
</svg>
