<?xml version="1.0" encoding="utf-8"?>
<!-- Generator: Adobe Illustrator 18.0.0, SVG Export Plug-In . SVG Version: 6.00 Build 0)  -->
<!DOCTYPE svg PUBLIC "-//W3C//DTD SVG 1.1//EN" "http://www.w3.org/Graphics/SVG/1.1/DTD/svg11.dtd">
<svg version="1.1" id="Warstwa_1" xmlns="http://www.w3.org/2000/svg" xmlns:xlink="http://www.w3.org/1999/xlink" x="0px" y="0px"
	 viewBox="0 0 165 170" enable-background="new 0 0 165 170" xml:space="preserve">
<pattern  y="170" width="5.7" height="5.7" patternUnits="userSpaceOnUse" id="GREENKNIT" viewBox="0 -5.7 5.7 5.7" overflow="visible">
	<g>
		<polygon fill="none" points="0,0 5.7,0 5.7,-5.7 0,-5.7 		"/>
		<polygon fill="#4CA22F" points="5.7,0 0,0 0,-5.7 5.7,-5.7 		"/>
		<path fill="#5D772F" d="M3.1-4.3c-0.6,1-0.5,2.1,0,2.4c0.6,0.3,1.5-0.2,2.1-1.2c0.6-1,0.5-2.1,0-2.4C4.6-5.9,3.7-5.3,3.1-4.3z"/>
		<path fill="#5D772F" d="M2.6-2.6c0.6,1,0.5,2.1,0,2.4C2,0.2,1-0.3,0.5-1.3c-0.6-1-0.5-2.1,0-2.4C1.1-4.1,2-3.5,2.6-2.6z"/>
	</g>
</pattern>
<g>
	<pattern  id="SVGID_1_" xlink:href="#GREENKNIT" patternTransform="matrix(1.8213 0 0 1.8213 4201.2261 39161.7578)">
	</pattern>
	<rect x="61.2" y="63.5" fill="url(#SVGID_1_)" width="14.2" height="14.2"/>
	<pattern  id="SVGID_2_" xlink:href="#GREENKNIT" patternTransform="matrix(1.8213 0 0 1.8213 4201.2261 39161.7578)">
	</pattern>
	<rect x="89.5" y="63.5" fill="url(#SVGID_2_)" width="14.2" height="14.2"/>
	<pattern  id="SVGID_3_" xlink:href="#GREENKNIT" patternTransform="matrix(1.8213 0 0 1.8213 4201.2261 39161.7578)">
	</pattern>
	<rect x="61.2" y="91.8" fill="url(#SVGID_3_)" width="14.2" height="14.2"/>
	<pattern  id="SVGID_4_" xlink:href="#GREENKNIT" patternTransform="matrix(1.8213 0 0 1.8213 4201.2261 39161.7578)">
	</pattern>
	<rect x="89.5" y="91.8" fill="url(#SVGID_4_)" width="14.2" height="14.2"/>
	<pattern  id="SVGID_5_" xlink:href="#GREENKNIT" patternTransform="matrix(1.8213 0 0 1.8213 4201.2261 39161.7578)">
	</pattern>
	<rect x="75.5" y="77.6" fill="url(#SVGID_5_)" width="14.2" height="14.2"/>
	<pattern  id="SVGID_6_" xlink:href="#GREENKNIT" patternTransform="matrix(1.8213 0 0 1.8213 4201.2261 39161.7578)">
	</pattern>
	<rect x="103.5" y="49.3" fill="url(#SVGID_6_)" width="14.2" height="14.2"/>
	<pattern  id="SVGID_7_" xlink:href="#GREENKNIT" patternTransform="matrix(1.8213 0 0 1.8213 4201.2261 39161.7578)">
	</pattern>
	<rect x="117.8" y="35.1" fill="url(#SVGID_7_)" width="14.2" height="14.2"/>
	<pattern  id="SVGID_8_" xlink:href="#GREENKNIT" patternTransform="matrix(1.8213 0 0 1.8213 4201.2261 39161.7578)">
	</pattern>
	<rect x="75.5" y="20.8" fill="url(#SVGID_8_)" width="14.2" height="28.5"/>
	<pattern  id="SVGID_9_" xlink:href="#GREENKNIT" patternTransform="matrix(1.8213 0 0 1.8213 4201.2261 39161.7578)">
	</pattern>
	<rect x="47" y="49.3" fill="url(#SVGID_9_)" width="14.2" height="14.2"/>
	<pattern  id="SVGID_10_" xlink:href="#GREENKNIT" patternTransform="matrix(1.8213 0 0 1.8213 4201.2261 39161.7578)">
	</pattern>
	<rect x="32.8" y="35.1" fill="url(#SVGID_10_)" width="14.2" height="14.2"/>
	<pattern  id="SVGID_11_" xlink:href="#GREENKNIT" patternTransform="matrix(1.8213 0 0 1.8213 4201.2261 39161.7578)">
	</pattern>
	<rect x="18.8" y="77.6" fill="url(#SVGID_11_)" width="28.5" height="14.2"/>
	<pattern  id="SVGID_12_" xlink:href="#GREENKNIT" patternTransform="matrix(1.8213 0 0 1.8213 4201.2261 39161.7578)">
	</pattern>
	<rect x="117.8" y="77.6" fill="url(#SVGID_12_)" width="28.5" height="14.2"/>
	<pattern  id="SVGID_13_" xlink:href="#GREENKNIT" patternTransform="matrix(1.8213 0 0 1.8213 4201.2261 39161.7578)">
	</pattern>
	<rect x="103.5" y="106" fill="url(#SVGID_13_)" width="14.2" height="14.2"/>
	<pattern  id="SVGID_14_" xlink:href="#GREENKNIT" patternTransform="matrix(1.8213 0 0 1.8213 4201.2261 39161.7578)">
	</pattern>
	<rect x="117.8" y="120.1" fill="url(#SVGID_14_)" width="14.2" height="14.2"/>
	<pattern  id="SVGID_15_" xlink:href="#GREENKNIT" patternTransform="matrix(1.8213 0 0 1.8213 4201.2261 39161.7578)">
	</pattern>
	<rect x="75.5" y="120.1" fill="url(#SVGID_15_)" width="14.2" height="28.5"/>
	<pattern  id="SVGID_16_" xlink:href="#GREENKNIT" patternTransform="matrix(1.8213 0 0 1.8213 4201.2261 39161.7578)">
	</pattern>
	<rect x="47" y="106" fill="url(#SVGID_16_)" width="14.2" height="14.2"/>
	<pattern  id="SVGID_17_" xlink:href="#GREENKNIT" patternTransform="matrix(1.8213 0 0 1.8213 4201.2261 39161.7578)">
	</pattern>
	<rect x="32.8" y="120.1" fill="url(#SVGID_17_)" width="14.2" height="14.2"/>
</g>
</svg>
