<?xml version="1.0" encoding="utf-8"?>
<!-- Generator: Adobe Illustrator 18.0.0, SVG Export Plug-In . SVG Version: 6.00 Build 0)  -->
<!DOCTYPE svg PUBLIC "-//W3C//DTD SVG 1.1//EN" "http://www.w3.org/Graphics/SVG/1.1/DTD/svg11.dtd">
<svg version="1.1" id="Warstwa_1" xmlns="http://www.w3.org/2000/svg" xmlns:xlink="http://www.w3.org/1999/xlink" x="0px" y="0px"
	 viewBox="0 0 90 110" enable-background="new 0 0 90 110" xml:space="preserve">
<pattern  y="10" width="5.7" height="5.7" patternUnits="userSpaceOnUse" id="GREENKNIT" viewBox="0 -5.7 5.7 5.7" overflow="visible">
	<g>
		<polygon fill="none" points="0,0 5.7,0 5.7,-5.7 0,-5.7 		"/>
		<polygon fill="#4CA246" points="5.7,0 0,0 0,-5.7 5.7,-5.7 		"/>
		<path fill="#5E7835" d="M3.1-4.3c-0.6,1-0.5,2.1,0,2.4c0.6,0.3,1.5-0.2,2.1-1.2c0.6-1,0.5-2.1,0-2.4C4.6-5.9,3.7-5.3,3.1-4.3z"/>
		<path fill="#5E7835" d="M2.6-2.6c0.6,1,0.5,2.1,0,2.4C2,0.2,1-0.3,0.5-1.3c-0.6-1-0.5-2.1,0-2.4C1.1-4.1,2-3.5,2.6-2.6z"/>
	</g>
</pattern>
<pattern  y="10" width="5.7" height="5.7" patternUnits="userSpaceOnUse" id="REDKNIT" viewBox="0 -5.7 5.7 5.7" overflow="visible">
	<g>
		<polygon fill="none" points="0,0 5.7,0 5.7,-5.7 0,-5.7 		"/>
		<polygon fill="#E21E26" points="5.7,0 0,0 0,-5.7 5.7,-5.7 		"/>
		<path fill="#A52423" d="M3.1-4.3c-0.6,1-0.5,2.1,0,2.4c0.6,0.3,1.5-0.2,2.1-1.2c0.6-1,0.5-2.1,0-2.4C4.6-5.9,3.7-5.3,3.1-4.3z"/>
		<path fill="#A52423" d="M2.6-2.6c0.6,1,0.5,2.1,0,2.4C2,0.2,1-0.3,0.5-1.3c-0.6-1-0.5-2.1,0-2.4C1.1-4.1,2-3.5,2.6-2.6z"/>
	</g>
</pattern>
<path fill="url(#GREENKNIT)" d="M20,20h10v10H20V20z M40,10h10V0H40V10z M70,20H60v10h10V20z M90,40H80v10h10V40z M0,50h10V40H0V50z
	 M20,70h10V60H20V70z M50,80H40v10h10V80z M70,60H60v10h10V60z"/>
<path fill="url(#REDKNIT)" d="M40,20h10v10H40V20z M40,70h10V60H40V70z M20,50h10V40H20V50z M50,40h10V30H50V40z M30,40h10V30H30V40
	z M50,60h10V50H50V60z M30,60h10V50H30V60z M60,50h10V40H60V50z M40,50h10V40H40V50z"/>
</svg>
